<?xml version="1.0" encoding="iso-8859-1"?>
<!-- Generator: Adobe Illustrator 19.0.0, SVG Export Plug-In . SVG Version: 6.00 Build 0)  -->
<svg version="1.1" id="Capa_1" xmlns="http://www.w3.org/2000/svg" xmlns:xlink="http://www.w3.org/1999/xlink" x="0px" y="0px"
	 viewBox="0 0 512.001 512.001" style="enable-background:new 0 0 512.001 512.001;" xml:space="preserve">
<g>
	<g>
		<path d="M296.792,348.766H187.603c-4.142,0-7.499,3.357-7.499,7.499c0,4.142,3.357,7.499,7.499,7.499h109.189
			c4.143,0,7.499-3.357,7.499-7.499C304.291,352.123,300.935,348.766,296.792,348.766z"/>
	</g>
</g>
<g>
	<g>
		<path d="M169.098,145.106c-11.711,0-21.239,9.528-21.239,21.239c0,11.711,9.528,21.239,21.239,21.239
			c11.711,0,21.238-9.528,21.238-21.239C190.337,154.633,180.81,145.106,169.098,145.106z M169.097,172.586
			c-3.442,0-6.241-2.8-6.241-6.241c0-3.442,2.8-6.241,6.241-6.241c3.441,0,6.24,2.8,6.24,6.241
			C175.337,169.786,172.539,172.586,169.097,172.586z"/>
	</g>
</g>
<g>
	<g>
		<path d="M314.59,145.106c-11.712,0-21.239,9.528-21.239,21.239c0,11.711,9.528,21.239,21.239,21.239
			c11.711,0,21.239-9.528,21.239-21.239C335.829,154.633,326.302,145.106,314.59,145.106z M314.589,172.586
			c-3.442,0-6.241-2.8-6.241-6.241c0-3.442,2.8-6.241,6.241-6.241s6.241,2.8,6.241,6.241
			C320.83,169.786,318.032,172.586,314.589,172.586z"/>
	</g>
</g>
<g>
	<g>
		<path d="M281.02,283.901l-20.825-18.287c1.462-2.88,2.304-6.124,2.304-9.569c0-9.225-5.922-17.073-14.156-19.999v-18.764
			c0-4.141-3.357-7.499-7.499-7.499c-4.143,0-7.499,3.357-7.499,7.499v19.071c-7.799,3.147-13.324,10.782-13.324,19.693
			c0,11.712,9.528,21.239,21.239,21.239c2.752,0,5.374-0.543,7.789-1.5l22.077,19.386c1.424,1.251,3.188,1.864,4.944,1.864
			c2.083,0,4.156-0.863,5.638-2.552C284.441,291.372,284.134,286.634,281.02,283.901z M241.259,262.289
			c-3.442,0-6.241-2.8-6.241-6.241s2.8-6.241,6.241-6.241c3.442,0,6.241,2.8,6.241,6.241
			C247.501,259.489,244.702,262.289,241.259,262.289z"/>
	</g>
</g>
<g>
	<g>
		<path d="M204.86,180.6c-3.713,1.837-5.232,6.335-3.395,10.047c1.836,3.712,6.335,5.231,10.047,3.395
			c45.033-22.288,98.831,10.404,98.831,61.419c0,37.769-30.728,68.498-68.498,68.498c-56.722,0-88.38-65.085-54.713-109.706
			c2.494-3.307,1.837-8.009-1.47-10.504c-3.306-2.494-8.008-1.837-10.504,1.47c-40.975,54.307-2.553,133.738,66.686,133.738
			c46.04,0,83.497-37.456,83.497-83.497C325.34,193.469,259.977,153.319,204.86,180.6z"/>
	</g>
</g>
<g>
	<g>
		<path d="M396.067,230.525c10.9,0,19.768-8.868,19.768-19.768v-18.403c0-10.9-8.868-19.768-19.768-19.768
			c-2.246,0.08-4.324-0.269-7.837,0.606v-14.653c0-29.783-20.178-54.926-47.577-62.519c-17.533-6.099-20.975-20.031-21.37-21.944
			c-4.148-59.37-3.859-55.57-3.932-56.066c-0.908-6.386-5.768-11.52-12.091-12.771c-38.67-7.664-87.654-6.601-122.088,1.123
			c-7.768,1.715-12.842,8.615-13.271,14.852l-3.563,53.131c-0.325,1.376-1.417,5.158-4.343,9.346
			c-7.268,10.399-18.002,12.37-20.003,13.494c-25.469,8.765-43.827,32.949-43.827,61.355v155.421c0,4.141,3.357,7.499,7.499,7.499
			c4.142,0,7.499-3.358,7.499-7.499V158.539c0-27.739,22.636-49.884,49.884-49.884h162.299c27.189,0,49.885,22.113,49.885,49.884
			c0,38.776,0,154.922,0,195.016c0,26.695-20.969,48.223-46.854,49.784c-2.6,0.16-165.852,0.123-167.619,0.043
			c-26.583-1.218-47.593-23.217-47.593-49.827v-4.598c0-4.143-3.357-7.499-7.499-7.499c-4.143,0-7.499,3.357-7.499,7.499v4.599
			c0,29.432,20.005,54.234,45.303,61.996c12.971,3.977,20.728,13.138,22.869,22.2c3.839,57.14,3.489,53.353,3.831,54.737
			c1.453,7.03,7.119,12.156,13.133,13.272c6.068,1.29,8.218,1.66,10.456,2.051c14.364,2.545,35.228,4.189,53.152,4.189
			c24.59,0,43.16-2.128,58.347-5.142c6.936-1.374,11.763-7.419,12.15-13.305l3.874-55.511c0.44-2.113,3.95-15.903,21.363-21.964
			c27.403-7.591,47.585-32.736,47.585-62.523v-8.108c3.517,0.876,5.567,0.525,7.837,0.606c10.9,0,19.768-8.867,19.768-19.768v-47.37
			c0-10.9-8.868-19.768-19.768-19.768H393c-1.648,0-3.24,0.225-4.77,0.606v-29.835C391.746,230.794,393.807,230.444,396.067,230.525
			z M388.23,192.354c0-2.585,2.185-4.769,4.77-4.769h3.067c2.586,0,4.77,2.184,4.77,4.769v18.403c0,2.586-2.185,4.77-4.77,4.77H393
			c-2.586,0-4.77-2.185-4.77-4.77V192.354z M171.323,93.658c4.979-6.616,7.735-14.623,7.943-17.762
			c3.872-57.564,3.532-52.961,3.588-53.239c0.179-0.895,0.869-1.532,1.575-1.655c19.351-4.266,41.879-5.908,60.481-5.908
			c31.393,0,55.33,4.528,55.568,4.955c2.833,40.515,3.867,55.626,3.938,56.082c0.089,0.584,1.45,8.855,7.986,17.527H171.323z
			 M304.349,436.572l-3.871,55.475c-0.178,0.319-23.139,4.955-55.568,4.955c-29.236,0-50.882-4.023-50.984-4.036
			c-9.838-1.725-10.688-1.72-11.099-3.657c-3.802-56.36-3.509-53.171-3.689-54.075c-0.448-2.248-2.23-9.374-7.815-16.797h141.08
			C307.356,425.134,304.573,433.231,304.349,436.572z M392.999,274.145h3.067c2.586,0,4.77,2.185,4.77,4.769v47.37
			c0,2.585-2.185,4.769-4.77,4.769h-3.067c-2.586,0-4.77-2.185-4.77-4.769v-47.37C388.23,276.33,390.414,274.145,392.999,274.145z"
			/>
	</g>
</g>
<g>
	<g>
		<path d="M353.126,191.557c4.141,0,7.499-3.357,7.499-7.499V158.54c0-20.555-16.724-37.277-37.278-37.277H161.048
			c-20.555,0-37.277,16.723-37.277,37.277v195.016c0,20.555,16.723,37.278,37.277,37.278h162.299
			c20.555,0,37.278-16.724,37.278-37.278V219.053c0-4.142-3.358-7.499-7.499-7.499c-4.142,0-7.499,3.357-7.499,7.499v134.502
			c0,12.285-9.995,22.28-22.28,22.28H161.048c-12.284,0-22.279-9.995-22.279-22.28V158.54c0-12.284,9.995-22.279,22.279-22.279
			h162.299c12.285,0,22.28,9.995,22.28,22.279v25.518C345.627,188.199,348.985,191.557,353.126,191.557z"/>
	</g>
</g>
<g>
</g>
<g>
</g>
<g>
</g>
<g>
</g>
<g>
</g>
<g>
</g>
<g>
</g>
<g>
</g>
<g>
</g>
<g>
</g>
<g>
</g>
<g>
</g>
<g>
</g>
<g>
</g>
<g>
</g>
</svg>
